<?xml version="1.0" encoding="utf-8" standalone="no"?>
<!DOCTYPE svg PUBLIC "-//W3C//DTD SVG 1.1//EN"
  "http://www.w3.org/Graphics/SVG/1.1/DTD/svg11.dtd">
<!-- Created with matplotlib (https://matplotlib.org/) -->
<svg height="360pt" version="1.1" viewBox="0 0 576 360" width="576pt" xmlns="http://www.w3.org/2000/svg" xmlns:xlink="http://www.w3.org/1999/xlink">
 <defs>
  <style type="text/css">
*{stroke-linecap:butt;stroke-linejoin:round;}
  </style>
 </defs>
 <g id="figure_1">
  <g id="patch_1">
   <path d="M 0 360 
L 576 360 
L 576 0 
L 0 0 
z
" style="fill:#ffffff;"/>
  </g>
  <g id="axes_1">
   <g id="patch_2">
    <path d="M 44.71 335 
L 565.2 335 
L 565.2 25.44 
L 44.71 25.44 
z
" style="fill:#ffffff;"/>
   </g>
   <g id="matplotlib.axis_1">
    <g id="xtick_1">
     <g id="line2d_1">
      <defs>
       <path d="M 0 0 
L 0 3.5 
" id="m05fc051951" style="stroke:#000000;stroke-width:0.8;"/>
      </defs>
      <g>
       <use style="stroke:#000000;stroke-width:0.8;" x="75.91823" xlink:href="#m05fc051951" y="335"/>
      </g>
     </g>
     <g id="text_1">
      <!-- −8000 -->
      <defs>
       <path d="M 10.59375 35.5 
L 73.1875 35.5 
L 73.1875 27.203125 
L 10.59375 27.203125 
z
" id="DejaVuSans-8722"/>
       <path d="M 31.78125 34.625 
Q 24.75 34.625 20.71875 30.859375 
Q 16.703125 27.09375 16.703125 20.515625 
Q 16.703125 13.921875 20.71875 10.15625 
Q 24.75 6.390625 31.78125 6.390625 
Q 38.8125 6.390625 42.859375 10.171875 
Q 46.921875 13.96875 46.921875 20.515625 
Q 46.921875 27.09375 42.890625 30.859375 
Q 38.875 34.625 31.78125 34.625 
z
M 21.921875 38.8125 
Q 15.578125 40.375 12.03125 44.71875 
Q 8.5 49.078125 8.5 55.328125 
Q 8.5 64.0625 14.71875 69.140625 
Q 20.953125 74.21875 31.78125 74.21875 
Q 42.671875 74.21875 48.875 69.140625 
Q 55.078125 64.0625 55.078125 55.328125 
Q 55.078125 49.078125 51.53125 44.71875 
Q 48 40.375 41.703125 38.8125 
Q 48.828125 37.15625 52.796875 32.3125 
Q 56.78125 27.484375 56.78125 20.515625 
Q 56.78125 9.90625 50.3125 4.234375 
Q 43.84375 -1.421875 31.78125 -1.421875 
Q 19.734375 -1.421875 13.25 4.234375 
Q 6.78125 9.90625 6.78125 20.515625 
Q 6.78125 27.484375 10.78125 32.3125 
Q 14.796875 37.15625 21.921875 38.8125 
z
M 18.3125 54.390625 
Q 18.3125 48.734375 21.84375 45.5625 
Q 25.390625 42.390625 31.78125 42.390625 
Q 38.140625 42.390625 41.71875 45.5625 
Q 45.3125 48.734375 45.3125 54.390625 
Q 45.3125 60.0625 41.71875 63.234375 
Q 38.140625 66.40625 31.78125 66.40625 
Q 25.390625 66.40625 21.84375 63.234375 
Q 18.3125 60.0625 18.3125 54.390625 
z
" id="DejaVuSans-56"/>
       <path d="M 31.78125 66.40625 
Q 24.171875 66.40625 20.328125 58.90625 
Q 16.5 51.421875 16.5 36.375 
Q 16.5 21.390625 20.328125 13.890625 
Q 24.171875 6.390625 31.78125 6.390625 
Q 39.453125 6.390625 43.28125 13.890625 
Q 47.125 21.390625 47.125 36.375 
Q 47.125 51.421875 43.28125 58.90625 
Q 39.453125 66.40625 31.78125 66.40625 
z
M 31.78125 74.21875 
Q 44.046875 74.21875 50.515625 64.515625 
Q 56.984375 54.828125 56.984375 36.375 
Q 56.984375 17.96875 50.515625 8.265625 
Q 44.046875 -1.421875 31.78125 -1.421875 
Q 19.53125 -1.421875 13.0625 8.265625 
Q 6.59375 17.96875 6.59375 36.375 
Q 6.59375 54.828125 13.0625 64.515625 
Q 19.53125 74.21875 31.78125 74.21875 
z
" id="DejaVuSans-48"/>
      </defs>
      <g transform="translate(62.386355 348.07875)scale(0.08 -0.08)">
       <use xlink:href="#DejaVuSans-8722"/>
       <use x="83.789062" xlink:href="#DejaVuSans-56"/>
       <use x="147.412109" xlink:href="#DejaVuSans-48"/>
       <use x="211.035156" xlink:href="#DejaVuSans-48"/>
       <use x="274.658203" xlink:href="#DejaVuSans-48"/>
      </g>
     </g>
    </g>
    <g id="xtick_2">
     <g id="line2d_2">
      <g>
       <use style="stroke:#000000;stroke-width:0.8;" x="153.749092" xlink:href="#m05fc051951" y="335"/>
      </g>
     </g>
     <g id="text_2">
      <!-- −6000 -->
      <defs>
       <path d="M 33.015625 40.375 
Q 26.375 40.375 22.484375 35.828125 
Q 18.609375 31.296875 18.609375 23.390625 
Q 18.609375 15.53125 22.484375 10.953125 
Q 26.375 6.390625 33.015625 6.390625 
Q 39.65625 6.390625 43.53125 10.953125 
Q 47.40625 15.53125 47.40625 23.390625 
Q 47.40625 31.296875 43.53125 35.828125 
Q 39.65625 40.375 33.015625 40.375 
z
M 52.59375 71.296875 
L 52.59375 62.3125 
Q 48.875 64.0625 45.09375 64.984375 
Q 41.3125 65.921875 37.59375 65.921875 
Q 27.828125 65.921875 22.671875 59.328125 
Q 17.53125 52.734375 16.796875 39.40625 
Q 19.671875 43.65625 24.015625 45.921875 
Q 28.375 48.1875 33.59375 48.1875 
Q 44.578125 48.1875 50.953125 41.515625 
Q 57.328125 34.859375 57.328125 23.390625 
Q 57.328125 12.15625 50.6875 5.359375 
Q 44.046875 -1.421875 33.015625 -1.421875 
Q 20.359375 -1.421875 13.671875 8.265625 
Q 6.984375 17.96875 6.984375 36.375 
Q 6.984375 53.65625 15.1875 63.9375 
Q 23.390625 74.21875 37.203125 74.21875 
Q 40.921875 74.21875 44.703125 73.484375 
Q 48.484375 72.75 52.59375 71.296875 
z
" id="DejaVuSans-54"/>
      </defs>
      <g transform="translate(140.217217 348.07875)scale(0.08 -0.08)">
       <use xlink:href="#DejaVuSans-8722"/>
       <use x="83.789062" xlink:href="#DejaVuSans-54"/>
       <use x="147.412109" xlink:href="#DejaVuSans-48"/>
       <use x="211.035156" xlink:href="#DejaVuSans-48"/>
       <use x="274.658203" xlink:href="#DejaVuSans-48"/>
      </g>
     </g>
    </g>
    <g id="xtick_3">
     <g id="line2d_3">
      <g>
       <use style="stroke:#000000;stroke-width:0.8;" x="231.579955" xlink:href="#m05fc051951" y="335"/>
      </g>
     </g>
     <g id="text_3">
      <!-- −4000 -->
      <defs>
       <path d="M 37.796875 64.3125 
L 12.890625 25.390625 
L 37.796875 25.390625 
z
M 35.203125 72.90625 
L 47.609375 72.90625 
L 47.609375 25.390625 
L 58.015625 25.390625 
L 58.015625 17.1875 
L 47.609375 17.1875 
L 47.609375 0 
L 37.796875 0 
L 37.796875 17.1875 
L 4.890625 17.1875 
L 4.890625 26.703125 
z
" id="DejaVuSans-52"/>
      </defs>
      <g transform="translate(218.04808 348.07875)scale(0.08 -0.08)">
       <use xlink:href="#DejaVuSans-8722"/>
       <use x="83.789062" xlink:href="#DejaVuSans-52"/>
       <use x="147.412109" xlink:href="#DejaVuSans-48"/>
       <use x="211.035156" xlink:href="#DejaVuSans-48"/>
       <use x="274.658203" xlink:href="#DejaVuSans-48"/>
      </g>
     </g>
    </g>
    <g id="xtick_4">
     <g id="line2d_4">
      <g>
       <use style="stroke:#000000;stroke-width:0.8;" x="309.410817" xlink:href="#m05fc051951" y="335"/>
      </g>
     </g>
     <g id="text_4">
      <!-- −2000 -->
      <defs>
       <path d="M 19.1875 8.296875 
L 53.609375 8.296875 
L 53.609375 0 
L 7.328125 0 
L 7.328125 8.296875 
Q 12.9375 14.109375 22.625 23.890625 
Q 32.328125 33.6875 34.8125 36.53125 
Q 39.546875 41.84375 41.421875 45.53125 
Q 43.3125 49.21875 43.3125 52.78125 
Q 43.3125 58.59375 39.234375 62.25 
Q 35.15625 65.921875 28.609375 65.921875 
Q 23.96875 65.921875 18.8125 64.3125 
Q 13.671875 62.703125 7.8125 59.421875 
L 7.8125 69.390625 
Q 13.765625 71.78125 18.9375 73 
Q 24.125 74.21875 28.421875 74.21875 
Q 39.75 74.21875 46.484375 68.546875 
Q 53.21875 62.890625 53.21875 53.421875 
Q 53.21875 48.921875 51.53125 44.890625 
Q 49.859375 40.875 45.40625 35.40625 
Q 44.1875 33.984375 37.640625 27.21875 
Q 31.109375 20.453125 19.1875 8.296875 
z
" id="DejaVuSans-50"/>
      </defs>
      <g transform="translate(295.878942 348.07875)scale(0.08 -0.08)">
       <use xlink:href="#DejaVuSans-8722"/>
       <use x="83.789062" xlink:href="#DejaVuSans-50"/>
       <use x="147.412109" xlink:href="#DejaVuSans-48"/>
       <use x="211.035156" xlink:href="#DejaVuSans-48"/>
       <use x="274.658203" xlink:href="#DejaVuSans-48"/>
      </g>
     </g>
    </g>
    <g id="xtick_5">
     <g id="line2d_5">
      <g>
       <use style="stroke:#000000;stroke-width:0.8;" x="387.241679" xlink:href="#m05fc051951" y="335"/>
      </g>
     </g>
     <g id="text_5">
      <!-- 0 -->
      <g transform="translate(384.696679 348.07875)scale(0.08 -0.08)">
       <use xlink:href="#DejaVuSans-48"/>
      </g>
     </g>
    </g>
    <g id="xtick_6">
     <g id="line2d_6">
      <g>
       <use style="stroke:#000000;stroke-width:0.8;" x="465.072541" xlink:href="#m05fc051951" y="335"/>
      </g>
     </g>
     <g id="text_6">
      <!-- 2000 -->
      <g transform="translate(454.892541 348.07875)scale(0.08 -0.08)">
       <use xlink:href="#DejaVuSans-50"/>
       <use x="63.623047" xlink:href="#DejaVuSans-48"/>
       <use x="127.246094" xlink:href="#DejaVuSans-48"/>
       <use x="190.869141" xlink:href="#DejaVuSans-48"/>
      </g>
     </g>
    </g>
    <g id="xtick_7">
     <g id="line2d_7">
      <g>
       <use style="stroke:#000000;stroke-width:0.8;" x="542.903404" xlink:href="#m05fc051951" y="335"/>
      </g>
     </g>
     <g id="text_7">
      <!-- 4000 -->
      <g transform="translate(532.723404 348.07875)scale(0.08 -0.08)">
       <use xlink:href="#DejaVuSans-52"/>
       <use x="63.623047" xlink:href="#DejaVuSans-48"/>
       <use x="127.246094" xlink:href="#DejaVuSans-48"/>
       <use x="190.869141" xlink:href="#DejaVuSans-48"/>
      </g>
     </g>
    </g>
   </g>
   <g id="matplotlib.axis_2">
    <g id="ytick_1">
     <g id="line2d_8">
      <defs>
       <path d="M 0 0 
L -3.5 0 
" id="m7be5f72e70" style="stroke:#000000;stroke-width:0.8;"/>
      </defs>
      <g>
       <use style="stroke:#000000;stroke-width:0.8;" x="44.71" xlink:href="#m7be5f72e70" y="325.989047"/>
      </g>
     </g>
     <g id="text_8">
      <!-- −8000 -->
      <g transform="translate(10.64625 329.028422)scale(0.08 -0.08)">
       <use xlink:href="#DejaVuSans-8722"/>
       <use x="83.789062" xlink:href="#DejaVuSans-56"/>
       <use x="147.412109" xlink:href="#DejaVuSans-48"/>
       <use x="211.035156" xlink:href="#DejaVuSans-48"/>
       <use x="274.658203" xlink:href="#DejaVuSans-48"/>
      </g>
     </g>
    </g>
    <g id="ytick_2">
     <g id="line2d_9">
      <g>
       <use style="stroke:#000000;stroke-width:0.8;" x="44.71" xlink:href="#m7be5f72e70" y="290.728029"/>
      </g>
     </g>
     <g id="text_9">
      <!-- −6000 -->
      <g transform="translate(10.64625 293.767404)scale(0.08 -0.08)">
       <use xlink:href="#DejaVuSans-8722"/>
       <use x="83.789062" xlink:href="#DejaVuSans-54"/>
       <use x="147.412109" xlink:href="#DejaVuSans-48"/>
       <use x="211.035156" xlink:href="#DejaVuSans-48"/>
       <use x="274.658203" xlink:href="#DejaVuSans-48"/>
      </g>
     </g>
    </g>
    <g id="ytick_3">
     <g id="line2d_10">
      <g>
       <use style="stroke:#000000;stroke-width:0.8;" x="44.71" xlink:href="#m7be5f72e70" y="255.467012"/>
      </g>
     </g>
     <g id="text_10">
      <!-- −4000 -->
      <g transform="translate(10.64625 258.506387)scale(0.08 -0.08)">
       <use xlink:href="#DejaVuSans-8722"/>
       <use x="83.789062" xlink:href="#DejaVuSans-52"/>
       <use x="147.412109" xlink:href="#DejaVuSans-48"/>
       <use x="211.035156" xlink:href="#DejaVuSans-48"/>
       <use x="274.658203" xlink:href="#DejaVuSans-48"/>
      </g>
     </g>
    </g>
    <g id="ytick_4">
     <g id="line2d_11">
      <g>
       <use style="stroke:#000000;stroke-width:0.8;" x="44.71" xlink:href="#m7be5f72e70" y="220.205994"/>
      </g>
     </g>
     <g id="text_11">
      <!-- −2000 -->
      <g transform="translate(10.64625 223.245369)scale(0.08 -0.08)">
       <use xlink:href="#DejaVuSans-8722"/>
       <use x="83.789062" xlink:href="#DejaVuSans-50"/>
       <use x="147.412109" xlink:href="#DejaVuSans-48"/>
       <use x="211.035156" xlink:href="#DejaVuSans-48"/>
       <use x="274.658203" xlink:href="#DejaVuSans-48"/>
      </g>
     </g>
    </g>
    <g id="ytick_5">
     <g id="line2d_12">
      <g>
       <use style="stroke:#000000;stroke-width:0.8;" x="44.71" xlink:href="#m7be5f72e70" y="184.944976"/>
      </g>
     </g>
     <g id="text_12">
      <!-- 0 -->
      <g transform="translate(32.62 187.984351)scale(0.08 -0.08)">
       <use xlink:href="#DejaVuSans-48"/>
      </g>
     </g>
    </g>
    <g id="ytick_6">
     <g id="line2d_13">
      <g>
       <use style="stroke:#000000;stroke-width:0.8;" x="44.71" xlink:href="#m7be5f72e70" y="149.683959"/>
      </g>
     </g>
     <g id="text_13">
      <!-- 2000 -->
      <g transform="translate(17.35 152.723334)scale(0.08 -0.08)">
       <use xlink:href="#DejaVuSans-50"/>
       <use x="63.623047" xlink:href="#DejaVuSans-48"/>
       <use x="127.246094" xlink:href="#DejaVuSans-48"/>
       <use x="190.869141" xlink:href="#DejaVuSans-48"/>
      </g>
     </g>
    </g>
    <g id="ytick_7">
     <g id="line2d_14">
      <g>
       <use style="stroke:#000000;stroke-width:0.8;" x="44.71" xlink:href="#m7be5f72e70" y="114.422941"/>
      </g>
     </g>
     <g id="text_14">
      <!-- 4000 -->
      <g transform="translate(17.35 117.462316)scale(0.08 -0.08)">
       <use xlink:href="#DejaVuSans-52"/>
       <use x="63.623047" xlink:href="#DejaVuSans-48"/>
       <use x="127.246094" xlink:href="#DejaVuSans-48"/>
       <use x="190.869141" xlink:href="#DejaVuSans-48"/>
      </g>
     </g>
    </g>
    <g id="ytick_8">
     <g id="line2d_15">
      <g>
       <use style="stroke:#000000;stroke-width:0.8;" x="44.71" xlink:href="#m7be5f72e70" y="79.161923"/>
      </g>
     </g>
     <g id="text_15">
      <!-- 6000 -->
      <g transform="translate(17.35 82.201298)scale(0.08 -0.08)">
       <use xlink:href="#DejaVuSans-54"/>
       <use x="63.623047" xlink:href="#DejaVuSans-48"/>
       <use x="127.246094" xlink:href="#DejaVuSans-48"/>
       <use x="190.869141" xlink:href="#DejaVuSans-48"/>
      </g>
     </g>
    </g>
    <g id="ytick_9">
     <g id="line2d_16">
      <g>
       <use style="stroke:#000000;stroke-width:0.8;" x="44.71" xlink:href="#m7be5f72e70" y="43.900906"/>
      </g>
     </g>
     <g id="text_16">
      <!-- 8000 -->
      <g transform="translate(17.35 46.940281)scale(0.08 -0.08)">
       <use xlink:href="#DejaVuSans-56"/>
       <use x="63.623047" xlink:href="#DejaVuSans-48"/>
       <use x="127.246094" xlink:href="#DejaVuSans-48"/>
       <use x="190.869141" xlink:href="#DejaVuSans-48"/>
      </g>
     </g>
    </g>
   </g>
   <g id="line2d_17">
    <path clip-path="url(#pa96a45fd31)" d="M 387.241679 184.944976 
L 426.273857 184.944976 
L 426.273857 184.839193 
L 426.273857 171.616312 
L 426.196026 171.616312 
L 396.075482 171.616312 
L 396.075482 171.510529 
L 396.075482 166.186115 
L 396.153313 166.186115 
L 424.016762 166.186115 
L 424.016762 166.291898 
L 424.016762 176.358919 
L 424.094592 176.358919 
L 459.11848 176.358919 
L 459.11848 176.464702 
L 459.11848 190.040193 
L 459.196311 190.040193 
L 488.694208 190.040193 
L 488.694208 189.93441 
L 488.694208 178.791929 
L 488.772039 178.791929 
L 499.940768 178.791929 
L 499.940768 178.897712 
L 499.940768 180.026064 
L 499.862937 180.026064 
L 465.500611 180.026064 
L 465.500611 179.920281 
L 465.500611 177.187552 
L 465.578442 177.187552 
L 496.905364 177.187552 
L 496.905364 177.293336 
L 496.905364 192.032441 
L 496.983195 192.032441 
L 503.715565 192.032441 
L 503.715565 192.138224 
L 503.715565 208.869577 
L 503.793395 208.869577 
L 528.738187 208.869577 
L 528.738187 208.763794 
L 528.738187 202.169983 
L 528.816018 202.169983 
L 541.541364 202.169983 
L 541.541364 202.0642 
L 541.541364 192.067702 
L 541.463533 192.067702 
L 473.400444 192.102963 
L 473.400444 192.173485 
L 473.400444 207.723594 
L 473.322613 207.723594 
L 452.035872 207.723594 
L 452.035872 207.617811 
L 452.035872 197.286333 
L 452.113703 197.286333 
L 457.951018 197.286333 
L 457.951018 197.392116 
L 457.951018 212.871702 
L 457.873187 212.871702 
L 428.336374 212.871702 
L 428.336374 212.977485 
L 428.336374 229.003618 
L 428.258544 229.003618 
L 400.083771 229.003618 
L 400.083771 229.109401 
L 400.083771 240.939472 
L 400.005941 240.939472 
L 383.856037 240.939472 
L 383.856037 241.045255 
L 383.856037 252.416934 
L 383.778206 252.416934 
L 379.65317 252.416934 
L 379.65317 252.522717 
L 379.65317 259.063635 
L 379.575339 259.063635 
L 352.451284 259.063635 
L 352.451284 259.169419 
L 352.451284 275.601053 
L 352.529115 275.601053 
L 374.049348 275.601053 
L 374.049348 275.706836 
L 374.049348 279.515026 
L 373.971517 279.515026 
L 347.236616 279.515026 
L 347.236616 279.620809 
L 347.236616 282.970605 
L 347.158785 282.970605 
L 329.56901 282.970605 
L 329.56901 282.864822 
L 329.56901 277.522778 
L 329.491179 277.522778 
L 311.278758 277.522778 
L 311.278758 277.628561 
L 311.278758 281.648317 
L 311.356588 281.648317 
L 318.984013 281.648317 
L 318.984013 281.542534 
L 318.984013 269.500897 
L 318.906182 269.500897 
L 280.224244 269.500897 
L 280.224244 269.395114 
L 280.224244 267.438127 
L 280.302074 267.438127 
L 288.318653 267.438127 
L 288.318653 267.54391 
L 288.318653 272.903585 
L 288.396484 272.903585 
L 310.57828 272.903585 
L 310.57828 273.009368 
L 310.57828 282.811931 
L 310.500449 282.811931 
L 302.522786 282.811931 
L 302.522786 282.706148 
L 302.522786 278.510087 
L 302.444955 278.510087 
L 272.596819 278.510087 
L 272.596819 278.404304 
L 272.596819 275.230812 
L 272.67465 275.230812 
L 278.55088 275.230812 
L 278.55088 275.336595 
L 278.55088 288.559477 
L 278.628711 288.559477 
L 282.325677 288.559477 
L 282.325677 288.66526 
L 282.325677 299.578545 
L 282.403508 299.578545 
L 309.021663 299.578545 
L 309.021663 299.472762 
L 309.021663 295.276701 
L 309.099493 295.276701 
L 322.564233 295.276701 
L 322.564233 295.170918 
L 322.564233 284.945222 
L 322.486402 284.945222 
L 307.581792 284.945222 
L 307.581792 285.051005 
L 307.581792 293.16104 
L 307.659622 293.16104 
L 326.377945 293.16104 
L 326.377945 293.055256 
L 326.377945 280.502334 
L 326.300114 280.502334 
L 291.66538 280.502334 
L 291.66538 280.608117 
L 291.66538 281.189924 
L 291.743211 281.189924 
L 318.594859 281.189924 
L 318.594859 281.084141 
L 318.594859 267.861259 
L 318.517028 267.861259 
L 290.420086 267.861259 
L 290.420086 267.755476 
L 290.420086 265.251944 
L 290.497917 265.251944 
L 293.144167 265.251944 
L 293.144167 265.146161 
L 293.144167 261.30271 
L 293.066336 261.30271 
L 260.571951 261.30271 
L 260.571951 261.408493 
L 260.571951 267.825998 
L 260.49412 267.825998 
L 248.547083 267.825998 
L 248.547083 267.720215 
L 248.547083 263.682829 
L 248.624913 263.682829 
L 263.412777 263.682829 
L 263.412777 263.788612 
L 263.412777 273.890893 
L 263.490608 273.890893 
L 279.134611 273.890893 
L 279.134611 273.996676 
L 279.134611 276.464948 
L 279.212442 276.464948 
L 279.368104 276.464948 
L 279.368104 276.359165 
L 279.368104 266.168731 
L 279.290273 266.168731 
L 246.679142 266.168731 
L 246.679142 266.274514 
L 246.679142 281.38386 
L 246.756973 281.38386 
L 283.337478 281.38386 
L 283.337478 281.278077 
L 283.337478 269.994551 
L 283.415309 269.994551 
L 289.019131 269.994551 
L 289.019131 270.100334 
L 289.019131 280.890205 
L 288.9413 280.890205 
L 288.552146 280.890205 
L 288.552146 280.784422 
L 288.552146 277.187799 
L 288.629977 277.187799 
L 293.45549 277.187799 
L 293.45549 277.082015 
L 293.45549 274.314026 
L 293.533321 274.314026 
L 329.685756 274.314026 
L 329.685756 274.419809 
L 329.685756 285.967792 
L 329.607926 285.967792 
L 302.0558 285.967792 
L 302.0558 286.073575 
L 302.0558 301.535531 
L 301.97797 301.535531 
L 275.359815 301.535531 
L 275.359815 301.641314 
L 275.359815 313.665321 
L 275.281984 313.665321 
L 269.600331 313.665321 
L 269.600331 313.771104 
L 269.600331 314.000301 
L 269.678162 314.000301 
L 296.957879 314.000301 
L 296.957879 313.894518 
L 296.957879 304.656131 
L 297.03571 304.656131 
L 331.553697 304.656131 
L 331.553697 304.550348 
L 331.553697 301.376857 
L 331.631528 301.376857 
L 361.868818 301.376857 
L 361.868818 301.48264 
L 361.868818 310.245003 
L 361.946649 310.245003 
L 378.096553 310.245003 
L 378.096553 310.13922 
L 378.096553 305.449504 
L 378.174384 305.449504 
L 399.149801 305.449504 
L 399.149801 305.343721 
L 399.149801 305.079263 
L 399.07197 305.079263 
L 377.279329 305.079263 
L 377.279329 305.185047 
L 377.279329 305.255569 
L 377.201498 305.255569 
L 363.697843 305.255569 
L 363.697843 305.149786 
L 363.697843 287.660321 
L 363.775674 287.660321 
L 366.383008 287.660321 
L 366.383008 287.766104 
L 366.383008 288.806304 
L 366.460839 288.806304 
L 388.17565 288.806304 
L 388.17565 288.912087 
L 388.17565 299.120151 
L 388.097819 299.120151 
L 351.244905 299.120151 
L 351.244905 299.225935 
L 351.244905 305.678701 
L 351.167074 305.678701 
L 346.964208 305.678701 
L 346.964208 305.784484 
L 346.964208 320.929091 
L 347.042039 320.929091 
L 355.214279 320.929091 
L 355.214279 320.823308 
L 355.214279 319.941782 
L 355.136448 319.941782 
L 318.789436 319.941782 
L 318.789436 319.835999 
L 318.789436 303.069385 
L 318.711605 303.069385 
L 315.364878 303.069385 
L 315.364878 302.963602 
L 315.364878 292.279514 
L 315.442709 292.279514 
L 351.439483 292.279514 
L 351.439483 292.173731 
L 351.439483 280.960727 
L 351.517313 280.960727 
L 367.628302 280.960727 
L 367.628302 280.854944 
L 367.628302 274.82531 
L 367.550471 274.82531 
L 346.575054 274.82531 
L 346.575054 274.931093 
L 346.575054 282.159602 
L 346.497223 282.159602 
L 315.131385 282.159602 
L 315.131385 282.265385 
L 315.131385 295.541158 
L 315.209216 295.541158 
L 332.604414 295.541158 
L 312.485136 295.646941 
L 312.485136 295.717463 
L 312.562967 295.717463 
L 331.709359 295.717463 
L 331.709359 295.823246 
L 331.709359 298.238626 
L 331.631528 298.238626 
L 310.850688 298.238626 
L 310.850688 298.132843 
L 310.850688 292.226623 
L 310.928519 292.226623 
L 326.183368 292.226623 
L 326.183368 292.120839 
L 326.183368 289.070761 
L 326.105537 289.070761 
L 325.327228 289.070761 
L 325.327228 289.176545 
L 325.327228 301.059507 
L 325.249397 301.059507 
L 319.956899 301.059507 
L 319.956899 300.953724 
L 319.956899 296.669511 
L 319.879068 296.669511 
L 308.866001 296.669511 
L 308.866001 296.563728 
L 308.866001 281.172294 
L 308.78817 281.172294 
L 280.963637 281.172294 
L 280.963637 281.06651 
L 280.963637 267.843629 
L 280.885806 267.843629 
L 268.783107 267.843629 
L 268.783107 267.737846 
L 268.783107 263.929656 
L 268.860938 263.929656 
L 300.810507 263.929656 
L 300.810507 264.035439 
L 300.810507 267.596802 
L 300.732676 267.596802 
L 295.595839 267.596802 
L 295.595839 267.491019 
L 295.595839 250.248381 
L 295.67367 250.248381 
L 306.56999 250.248381 
L 306.56999 250.142598 
L 306.56999 239.053008 
L 306.647821 239.053008 
L 314.625485 239.053008 
L 314.625485 239.158791 
L 314.625485 240.16373 
L 314.547654 240.16373 
L 298.436665 240.16373 
L 298.436665 240.057947 
L 298.436665 231.15454 
L 298.358834 231.15454 
L 291.470803 231.15454 
L 291.470803 231.260323 
L 291.470803 241.415496 
L 291.392972 241.415496 
L 266.136857 241.415496 
L 266.136857 241.309713 
L 266.136857 224.983862 
L 266.214688 224.983862 
L 291.276226 224.983862 
L 291.276226 224.878079 
L 291.276226 218.31953 
L 291.354057 218.31953 
L 301.510984 218.31953 
L 301.510984 218.213747 
L 301.510984 215.886519 
L 301.433153 215.886519 
L 265.708788 215.886519 
L 265.708788 215.780736 
L 265.708788 206.665763 
L 265.630957 206.665763 
L 232.280432 206.665763 
L 232.280432 206.771546 
L 232.280432 216.468326 
L 232.202601 216.468326 
L 221.500858 216.468326 
L 221.500858 216.574109 
L 221.500858 225.60093 
L 221.578689 225.60093 
L 240.530504 225.60093 
L 240.530504 225.495147 
L 240.530504 215.710214 
L 240.452673 215.710214 
L 222.746152 215.710214 
L 222.746152 215.815997 
L 222.746152 220.946475 
L 222.823983 220.946475 
L 225.548063 220.946475 
L 225.548063 220.840692 
L 225.548063 204.726407 
L 225.470232 204.726407 
L 202.860366 204.726407 
L 202.860366 204.620624 
L 202.860366 204.320906 
L 202.782536 204.320906 
L 187.488771 204.320906 
L 187.488771 204.426689 
L 187.488771 219.201055 
L 187.566602 219.201055 
L 217.687146 219.201055 
L 217.687146 219.306838 
L 217.687146 228.933096 
L 217.609315 228.933096 
L 215.546797 228.933096 
L 215.546797 229.038879 
L 215.546797 237.74835 
L 215.624628 237.74835 
L 219.86641 237.74835 
L 219.86641 237.642567 
L 219.86641 230.537472 
L 219.944241 230.537472 
L 246.52348 230.537472 
L 246.52348 230.643255 
L 246.52348 238.065699 
L 246.601311 238.065699 
L 257.225224 238.065699 
L 257.225224 237.959916 
L 257.225224 225.036753 
L 257.303055 225.036753 
L 264.268917 225.036753 
L 264.268917 224.93097 
L 264.268917 219.165794 
L 264.191086 219.165794 
L 255.902099 219.165794 
L 255.902099 219.060011 
L 255.902099 204.920343 
L 255.97993 204.920343 
L 269.172261 204.920343 
L 269.172261 205.026126 
L 269.172261 214.387926 
L 269.250092 214.387926 
L 282.247846 214.387926 
L 282.247846 214.282143 
L 282.247846 210.332909 
L 282.325677 210.332909 
L 291.859957 210.332909 
L 291.859957 210.227126 
L 291.859957 197.145288 
L 291.937788 197.145288 
L 324.782412 197.145288 
L 324.782412 197.039505 
L 324.782412 190.022563 
L 324.860243 190.022563 
L 357.860529 190.022563 
L 357.860529 190.128346 
L 357.860529 198.714404 
L 357.93836 198.714404 
L 392.534178 198.714404 
L 392.534178 198.608621 
L 392.534178 195.611434 
L 392.456347 195.611434 
L 363.581097 195.611434 
L 363.581097 195.505651 
L 363.581097 185.297587 
L 363.503266 185.297587 
L 325.171566 185.297587 
L 325.171566 185.40337 
L 325.171566 200.265889 
L 325.249397 200.265889 
L 335.717648 200.265889 
L 335.717648 200.371672 
L 335.717648 215.21656 
L 335.639817 215.21656 
L 314.119584 215.21656 
L 314.119584 215.110777 
L 314.119584 201.094522 
L 314.197415 201.094522 
L 326.41686 201.094522 
L 326.41686 200.988739 
L 326.41686 187.818749 
L 326.339029 187.818749 
L 311.239842 187.818749 
L 311.239842 187.712966 
L 311.239842 186.10859 
L 311.162011 186.10859 
L 306.258667 186.10859 
L 306.258667 186.002807 
L 306.258667 185.315217 
L 306.336498 185.315217 
L 333.732961 185.315217 
L 333.732961 185.209434 
L 333.732961 184.698149 
L 333.65513 184.698149 
L 297.619441 184.698149 
L 297.619441 184.592366 
L 297.619441 168.601495 
L 297.697272 168.601495 
L 318.517028 168.601495 
L 318.517028 168.707278 
L 318.517028 177.628315 
L 318.594859 177.628315 
L 324.432173 177.628315 
L 324.432173 177.734098 
L 324.432173 184.856824 
L 324.510004 184.856824 
L 327.389746 184.856824 
L 327.389746 184.962607 
L 327.389746 188.5416 
L 327.467577 188.5416 
L 334.51127 188.5416 
L 334.51127 188.435817 
L 334.51127 171.951291 
L 334.589101 171.951291 
L 345.75783 171.951291 
L 345.75783 171.845508 
L 345.75783 160.80881 
L 345.679999 160.80881 
L 309.838887 160.80881 
L 309.838887 160.914593 
L 309.838887 164.158606 
L 309.916717 164.158606 
L 328.829617 164.158606 
L 328.829617 164.26439 
L 328.829617 180.625502 
L 328.907448 180.625502 
L 346.030238 180.625502 
L 346.030238 180.731285 
L 346.030238 185.967546 
L 346.108068 185.967546 
L 352.957184 185.967546 
L 352.957184 186.073329 
L 352.957184 190.375173 
L 353.035015 190.375173 
L 360.895932 190.375173 
L 360.895932 190.26939 
L 360.895932 186.020437 
L 360.973763 186.020437 
L 388.409142 186.020437 
L 388.409142 185.914654 
L 388.409142 184.662888 
L 388.486973 184.662888 
L 405.064947 184.662888 
L 405.064947 184.768671 
L 405.064947 197.021875 
L 405.142777 197.021875 
L 420.086303 197.021875 
L 420.086303 196.916092 
L 420.086303 195.082519 
L 420.164134 195.082519 
L 445.031094 195.082519 
L 445.031094 194.976736 
L 445.031094 178.774298 
L 445.108925 178.774298 
L 472.388642 178.774298 
L 472.388642 178.880081 
L 472.388642 185.597305 
L 472.310812 185.597305 
L 435.574645 185.597305 
L 435.574645 185.491522 
L 435.574645 178.280644 
L 435.652475 178.280644 
L 453.514658 178.280644 
L 453.514658 178.386427 
L 453.514658 180.449197 
L 453.436828 180.449197 
L 445.186756 180.449197 
L 445.186756 180.343414 
L 445.186756 176.288397 
L 445.108925 176.288397 
L 407.866858 176.288397 
L 407.866858 176.182613 
L 407.866858 167.173423 
L 407.944689 167.173423 
L 445.108925 167.173423 
L 445.108925 167.279207 
L 445.108925 176.41181 
L 445.186756 176.41181 
L 476.708255 176.41181 
L 476.708255 176.517593 
L 476.708255 188.18899 
L 476.786086 188.18899 
L 491.068049 188.18899 
L 491.068049 188.083207 
L 491.068049 182.194617 
L 490.990219 182.194617 
L 467.485298 182.194617 
L 467.485298 182.3004 
L 467.485298 191.062763 
L 467.563129 191.062763 
L 496.866449 191.062763 
L 496.866449 190.95698 
L 496.866449 184.186864 
L 496.94428 184.186864 
L 502.39244 184.186864 
L 502.39244 184.292648 
L 502.39244 200.424563 
L 502.314609 200.424563 
L 464.410979 200.424563 
L 464.410979 200.530346 
L 464.410979 201.059261 
L 464.333148 201.059261 
L 426.857588 201.059261 
L 426.857588 201.165044 
L 426.857588 208.99299 
L 426.779757 208.99299 
L 398.760647 208.99299 
L 398.760647 209.098773 
L 398.760647 212.942224 
L 398.682816 212.942224 
L 386.969271 212.942224 
L 386.969271 212.836441 
L 386.969271 200.512716 
L 386.89144 200.512716 
L 364.242659 200.512716 
L 364.242659 200.512716 
" style="fill:none;stroke:#ff0000;stroke-linecap:square;"/>
   </g>
   <g id="line2d_18">
    <path clip-path="url(#pa96a45fd31)" d="M 387.241679 184.944976 
L 348.598656 184.944976 
L 348.598656 184.839193 
L 348.598656 170.664264 
L 348.520825 170.664264 
L 312.36839 170.664264 
L 312.36839 170.770047 
L 312.36839 173.114905 
L 312.44622 173.114905 
L 316.804749 173.114905 
L 316.804749 173.220688 
L 316.804749 174.472454 
L 316.726918 174.472454 
L 313.886091 174.472454 
L 313.886091 174.366671 
L 313.886091 161.86664 
L 313.963922 161.86664 
L 334.900424 161.86664 
L 334.900424 161.972423 
L 334.900424 179.391366 
L 334.822593 179.391366 
L 301.199661 179.391366 
L 301.199661 179.285583 
L 301.199661 171.263702 
L 301.277492 171.263702 
L 314.430907 171.263702 
L 314.430907 171.369485 
L 314.430907 174.419563 
L 314.508738 174.419563 
L 326.650353 174.419563 
L 326.650353 174.525346 
L 326.650353 181.877268 
L 326.728184 181.877268 
L 351.128159 181.877268 
L 351.128159 181.983051 
L 351.128159 182.018312 
L 351.050328 182.018312 
L 324.198681 182.018312 
L 324.198681 181.912529 
L 324.198681 174.155105 
L 324.12085 174.155105 
L 320.774123 174.155105 
L 320.774123 174.260888 
L 320.774123 176.482332 
L 320.696292 176.482332 
L 315.792948 176.482332 
L 315.792948 176.376549 
L 315.792948 160.015437 
L 315.715117 160.015437 
L 297.697272 160.015437 
L 297.697272 160.12122 
L 297.697272 161.038006 
L 297.619441 161.038006 
L 270.612132 161.038006 
L 270.612132 161.143789 
L 270.612132 176.605746 
L 270.534301 176.605746 
L 233.447895 176.605746 
L 233.447895 176.711529 
L 233.447895 186.566983 
L 233.525726 186.566983 
L 249.948038 186.566983 
L 249.948038 186.4612 
L 249.948038 181.524658 
L 250.025869 181.524658 
L 265.630957 181.524658 
L 265.630957 181.418875 
L 265.630957 180.519719 
L 265.553126 180.519719 
L 241.230982 180.519719 
L 241.230982 180.625502 
L 241.230982 196.916092 
L 241.308812 196.916092 
L 275.748969 196.916092 
L 275.748969 197.021875 
L 275.748969 213.506401 
L 275.671138 213.506401 
L 263.840847 213.506401 
L 263.840847 213.612184 
L 263.840847 230.273015 
L 263.918678 230.273015 
L 299.565213 230.273015 
L 299.565213 230.167231 
L 299.565213 219.923906 
L 299.643044 219.923906 
L 336.106803 219.923906 
L 336.106803 219.818123 
L 336.106803 205.449258 
L 336.028972 205.449258 
L 333.5773 205.449258 
L 333.5773 205.555041 
L 333.5773 205.766607 
L 333.499469 205.766607 
L 295.167769 205.766607 
L 295.167769 205.87239 
L 295.167769 218.231377 
L 295.089938 218.231377 
L 281.158214 218.231377 
L 281.158214 218.33716 
L 281.158214 219.183424 
L 281.080383 219.183424 
L 244.889032 219.183424 
L 244.889032 219.077641 
L 244.889032 212.730658 
L 244.966863 212.730658 
L 269.211176 212.730658 
L 269.211176 212.624875 
L 269.211176 201.993678 
L 269.289007 201.993678 
L 275.943546 201.993678 
L 275.943546 202.099461 
L 275.943546 213.224313 
L 276.021377 213.224313 
L 301.666646 213.224313 
L 301.666646 213.118529 
L 301.666646 197.568421 
L 301.588815 197.568421 
L 299.020397 197.568421 
L 299.020397 197.462638 
L 299.020397 180.607871 
L 299.098228 180.607871 
L 309.527563 180.607871 
L 309.527563 180.502088 
L 309.527563 174.102213 
L 309.605394 174.102213 
L 339.881599 174.102213 
L 339.881599 173.99643 
L 339.881599 159.204433 
L 339.803769 159.204433 
L 308.243354 159.204433 
L 308.243354 159.09865 
L 308.243354 150.724159 
L 308.321185 150.724159 
L 310.811772 150.724159 
L 310.811772 150.829942 
L 310.811772 153.932911 
L 310.889603 153.932911 
L 327.156253 153.932911 
L 327.156253 153.827128 
L 327.156253 143.266454 
L 327.234084 143.266454 
L 361.401833 143.266454 
L 361.401833 143.372237 
L 361.401833 148.132474 
L 361.324002 148.132474 
L 361.16834 148.132474 
L 361.16834 148.238257 
L 361.16834 157.459013 
L 361.246171 157.459013 
L 395.530666 157.459013 
L 395.530666 157.35323 
L 395.530666 154.126847 
L 395.608497 154.126847 
L 410.31853 154.126847 
L 410.31853 154.23263 
L 410.31853 162.448447 
L 410.396361 162.448447 
L 411.485993 162.448447 
L 411.485993 162.342664 
L 411.485993 161.831379 
L 411.408162 161.831379 
L 391.639123 161.831379 
L 391.639123 161.937162 
L 391.639123 176.711529 
L 391.561292 176.711529 
L 385.95747 176.711529 
L 385.95747 176.605746 
L 385.95747 161.284834 
L 386.035301 161.284834 
L 391.872615 161.284834 
L 391.872615 161.17905 
L 391.872615 151.676206 
L 391.950446 151.676206 
L 402.535444 151.676206 
L 402.535444 151.570423 
L 402.535444 135.456138 
L 402.613274 135.456138 
L 419.34691 135.456138 
L 419.34691 135.350355 
L 419.34691 121.104904 
L 419.424741 121.104904 
L 442.034606 121.104904 
L 442.034606 121.210687 
L 442.034606 130.960358 
L 441.956775 130.960358 
L 410.123953 130.960358 
L 410.123953 130.854575 
L 410.123953 128.58024 
L 410.046122 128.58024 
L 396.386805 128.58024 
L 396.386805 128.474457 
L 396.386805 111.390494 
L 396.308975 111.390494 
L 392.378516 111.390494 
L 392.378516 111.284711 
L 392.378516 100.547731 
L 392.456347 100.547731 
L 407.983604 100.547731 
L 407.983604 100.441948 
L 407.983604 88.347419 
L 407.905773 88.347419 
L 381.676772 88.347419 
L 381.676772 88.453202 
L 381.676772 102.116846 
L 381.754603 102.116846 
L 403.119175 102.116846 
L 403.119175 102.222629 
L 403.119175 119.482897 
L 403.041344 119.482897 
L 390.782983 119.482897 
L 390.782983 119.377114 
L 390.782983 104.743792 
L 390.860814 104.743792 
L 395.258258 104.743792 
L 395.258258 104.849575 
L 395.258258 108.551982 
L 395.180427 108.551982 
L 357.627036 108.551982 
L 357.627036 108.446199 
L 357.627036 103.509656 
L 357.704867 103.509656 
L 384.128445 103.509656 
L 384.128445 103.403873 
L 384.128445 100.970863 
L 384.050614 100.970863 
L 370.352382 100.970863 
L 370.352382 100.86508 
L 370.352382 89.017378 
L 370.274551 89.017378 
L 335.600902 89.017378 
L 335.600902 89.123161 
L 335.600902 97.603436 
L 335.678733 97.603436 
L 361.440748 97.603436 
L 361.440748 97.709219 
L 361.440748 100.86508 
L 361.518579 100.86508 
L 392.067193 100.86508 
L 392.067193 100.970863 
L 392.067193 116.891212 
L 391.989362 116.891212 
L 369.418412 116.891212 
L 369.418412 116.996995 
L 369.418412 121.880646 
L 369.340581 121.880646 
L 349.221303 121.880646 
L 349.221303 121.986429 
L 349.221303 137.624691 
L 349.143472 137.624691 
L 347.042039 137.624691 
L 347.042039 137.518908 
L 347.042039 124.08446 
L 346.964208 124.08446 
L 333.616215 124.08446 
L 333.616215 124.190243 
L 333.616215 141.573925 
L 333.538384 141.573925 
L 323.965188 141.573925 
L 323.965188 141.468142 
L 323.965188 133.834131 
L 324.043019 133.834131 
L 346.26373 133.834131 
L 346.26373 133.939914 
L 346.26373 135.561921 
L 346.185899 135.561921 
L 331.086712 135.561921 
L 331.086712 135.667704 
L 331.086712 136.320033 
L 331.008881 136.320033 
L 312.796459 136.320033 
L 312.796459 136.425816 
L 312.796459 143.989304 
L 312.87429 143.989304 
L 319.645575 143.989304 
L 319.645575 143.883521 
L 319.645575 135.738226 
L 319.723406 135.738226 
L 346.419392 135.738226 
L 346.419392 135.632443 
L 346.419392 128.897589 
L 346.341561 128.897589 
L 331.748274 128.897589 
L 331.748274 128.791806 
L 331.748274 114.793182 
L 331.826105 114.793182 
L 339.02546 114.793182 
L 339.02546 114.687399 
L 339.02546 103.492026 
L 338.947629 103.492026 
L 328.596124 103.492026 
L 328.596124 103.386243 
L 328.596124 88.38268 
L 328.518294 88.38268 
L 300.732676 88.38268 
L 300.732676 88.488463 
L 300.732676 91.538541 
L 300.810507 91.538541 
L 308.982747 91.538541 
L 308.982747 91.432758 
L 308.982747 88.082961 
L 308.904916 88.082961 
L 295.67367 88.082961 
L 295.67367 87.977178 
L 295.67367 75.195059 
L 295.751501 75.195059 
L 305.830597 75.195059 
L 305.830597 75.300842 
L 305.830597 76.817066 
L 305.908428 76.817066 
L 312.952121 76.817066 
L 312.952121 76.922849 
L 312.952121 87.800873 
L 312.87429 87.800873 
L 290.030932 87.800873 
L 290.030932 87.906656 
L 290.030932 91.591432 
L 289.953101 91.591432 
L 252.438626 91.591432 
L 252.438626 91.485649 
L 252.438626 76.111845 
L 252.360795 76.111845 
L 221.928928 76.111845 
L 221.928928 76.006062 
L 221.928928 63.065269 
L 222.006759 63.065269 
L 253.956327 63.065269 
L 253.956327 63.171052 
L 253.956327 64.810689 
L 253.878497 64.810689 
L 247.45745 64.810689 
L 247.45745 64.916472 
L 247.45745 82.300154 
L 247.535281 82.300154 
L 263.568439 82.300154 
L 263.568439 82.194371 
L 263.568439 81.912283 
L 263.490608 81.912283 
L 262.517722 81.912283 
L 262.517722 81.8065 
L 262.517722 75.036384 
L 262.595553 75.036384 
L 273.647536 75.036384 
L 273.647536 75.142167 
L 273.647536 88.153483 
L 273.569705 88.153483 
L 259.63798 88.153483 
L 259.63798 88.0477 
L 259.63798 78.386181 
L 259.56015 78.386181 
L 230.217914 78.386181 
L 230.217914 78.280398 
L 230.217914 65.780367 
L 230.295745 65.780367 
L 266.759504 65.780367 
L 266.759504 65.88615 
L 266.759504 79.990557 
L 266.837335 79.990557 
L 277.61691 79.990557 
L 277.61691 79.884774 
L 277.61691 74.842449 
L 277.539079 74.842449 
L 240.258096 74.842449 
L 240.258096 74.736666 
L 240.258096 63.682337 
L 240.180265 63.682337 
L 223.602291 63.682337 
L 223.602291 63.576554 
L 223.602291 46.950984 
L 223.680122 46.950984 
L 227.10468 46.950984 
L 227.10468 47.056767 
L 227.10468 52.610377 
L 227.182511 52.610377 
L 256.252338 52.610377 
L 256.252338 52.504594 
L 256.252338 45.646326 
L 256.174507 45.646326 
L 240.997489 45.646326 
L 240.997489 45.540543 
L 240.997489 39.510909 
L 240.919658 39.510909 
L 239.71328 39.510909 
L 239.71328 39.616692 
L 239.71328 52.857204 
L 239.791111 52.857204 
L 250.959839 52.857204 
L 250.959839 52.962987 
L 250.959839 59.327601 
L 250.882008 59.327601 
L 229.089367 59.327601 
L 229.089367 59.433384 
L 229.089367 71.104781 
L 229.011536 71.104781 
L 226.015048 71.104781 
L 226.015048 71.210564 
L 226.015048 74.507469 
L 225.937217 74.507469 
L 187.449856 74.507469 
L 187.449856 74.613252 
L 187.449856 86.936978 
L 187.372025 86.936978 
L 165.579383 86.936978 
L 165.579383 86.831195 
L 165.579383 86.496215 
L 165.657214 86.496215 
L 171.261036 86.496215 
L 171.261036 86.601998 
L 171.261036 87.095652 
L 171.338867 87.095652 
L 183.908551 87.095652 
L 183.908551 86.989869 
L 183.908551 83.516659 
L 183.986382 83.516659 
L 199.59147 83.516659 
L 199.59147 83.622442 
L 199.59147 96.104842 
L 199.669301 96.104842 
L 223.213137 96.104842 
L 223.213137 95.999059 
L 223.213137 94.835446 
L 223.135306 94.835446 
L 205.934685 94.835446 
L 205.934685 94.941229 
L 205.934685 96.175364 
L 206.012516 96.175364 
L 216.325106 96.175364 
L 216.325106 96.069581 
L 216.325106 79.884774 
L 216.402936 79.884774 
L 227.571665 79.884774 
L 227.571665 79.778991 
L 227.571665 62.924225 
L 227.493834 62.924225 
L 221.384112 62.924225 
L 221.384112 62.818442 
L 221.384112 50.124475 
L 221.306281 50.124475 
L 219.165932 50.124475 
L 219.165932 50.230258 
L 219.165932 59.64495 
L 219.243763 59.64495 
L 230.801646 59.64495 
L 230.801646 59.539167 
L 230.801646 53.597686 
L 230.879477 53.597686 
L 267.22649 53.597686 
L 267.22649 53.491903 
L 267.22649 52.01094 
L 267.148659 52.01094 
L 255.12379 52.01094 
L 255.12379 51.905157 
L 255.12379 47.726726 
L 255.04596 47.726726 
L 238.973886 47.726726 
L 238.973886 47.832509 
L 238.973886 55.237323 
L 238.896056 55.237323 
L 202.549043 55.237323 
L 202.549043 55.343106 
L 202.549043 65.286713 
L 202.471212 65.286713 
L 181.573626 65.286713 
L 181.573626 65.392496 
L 181.573626 78.174615 
L 181.651456 78.174615 
L 195.855589 78.174615 
L 195.855589 78.280398 
L 195.855589 84.768425 
L 195.777758 84.768425 
L 193.676325 84.768425 
L 193.676325 84.874208 
L 193.676325 89.193683 
L 193.598494 89.193683 
L 183.363735 89.193683 
L 183.363735 89.0879 
L 183.363735 88.0477 
L 183.285905 88.0477 
L 182.818919 88.0477 
L 182.818919 88.153483 
L 182.818919 103.597809 
L 182.741088 103.597809 
L 145.615767 103.597809 
L 145.615767 103.492026 
L 145.615767 102.046324 
L 145.693598 102.046324 
L 172.389584 102.046324 
L 172.389584 102.152107 
L 172.389584 102.645761 
L 172.467415 102.645761 
L 206.090347 102.645761 
L 206.090347 102.539978 
L 206.090347 88.946856 
L 206.168178 88.946856 
L 219.399425 88.946856 
L 219.399425 89.052639 
L 219.399425 93.707093 
L 219.321594 93.707093 
L 206.012516 93.707093 
L 206.012516 93.812876 
L 206.012516 110.508968 
L 205.934685 110.508968 
L 188.967557 110.508968 
L 188.967557 110.614751 
L 188.967557 125.583053 
L 188.889727 125.583053 
L 166.124199 125.583053 
L 166.124199 125.47727 
L 166.124199 119.94129 
L 166.046369 119.94129 
L 129.037794 119.94129 
L 129.037794 120.047073 
L 129.037794 136.602121 
L 128.959963 136.602121 
L 110.630795 136.602121 
L 110.630795 136.496338 
L 110.630795 126.746667 
L 110.552964 126.746667 
L 91.67898 126.746667 
L 91.67898 126.85245 
L 91.67898 137.360233 
L 91.75681 137.360233 
L 101.602415 137.360233 
L 101.602415 137.25445 
L 101.602415 122.00406 
L 101.524584 122.00406 
L 68.368636 122.00406 
L 68.368636 121.898277 
L 68.368636 121.210687 
L 68.446467 121.210687 
L 95.804015 121.210687 
L 95.804015 121.31647 
L 95.804015 125.565423 
L 95.881846 125.565423 
L 132.968252 125.565423 
L 132.968252 125.45964 
L 132.968252 109.962422 
L 133.046083 109.962422 
L 158.53569 109.962422 
L 158.53569 110.068205 
L 158.53569 121.66908 
L 158.457859 121.66908 
L 144.526135 121.66908 
L 144.526135 121.774863 
L 144.526135 135.138789 
L 144.448304 135.138789 
L 123.161563 135.138789 
L 123.161563 135.244572 
L 123.161563 147.057013 
L 123.239394 147.057013 
L 126.469375 147.057013 
L 126.469375 146.95123 
L 126.469375 143.724847 
L 126.391544 143.724847 
L 89.4608 143.724847 
L 89.4608 143.83063 
L 89.4608 159.980176 
L 89.538631 159.980176 
L 109.346585 159.980176 
L 109.346585 160.085959 
L 109.346585 167.543664 
L 109.424416 167.543664 
L 110.786456 167.543664 
L 110.786456 167.437881 
L 110.786456 167.349729 
L 110.864287 167.349729 
L 142.736025 167.349729 
L 142.736025 167.243946 
L 142.736025 150.001308 
L 142.813856 150.001308 
L 174.841256 150.001308 
L 174.841256 149.895525 
L 174.841256 134.592243 
L 174.919087 134.592243 
L 204.144576 134.592243 
L 204.144576 134.698026 
L 204.144576 143.83063 
L 204.066745 143.83063 
L 183.246989 143.83063 
L 183.246989 143.724847 
L 183.246989 132.934975 
L 183.169158 132.934975 
L 147.483708 132.934975 
L 147.483708 133.040758 
L 147.483708 143.460389 
L 147.405877 143.460389 
L 133.318491 143.460389 
L 133.318491 143.566172 
L 133.318491 147.533037 
L 133.24066 147.533037 
L 123.27831 147.533037 
L 123.27831 147.427254 
L 123.27831 133.11128 
L 123.356141 133.11128 
L 139.077975 133.11128 
L 139.077975 133.217063 
L 139.077975 136.778426 
L 139.155806 136.778426 
L 147.405877 136.778426 
L 147.405877 136.672643 
L 147.405877 127.434257 
L 147.483708 127.434257 
L 157.562805 127.434257 
L 157.562805 127.434257 
" style="fill:none;stroke:#1f77b4;stroke-linecap:square;"/>
   </g>
   <g id="patch_3">
    <path d="M 44.71 335 
L 44.71 25.44 
" style="fill:none;stroke:#000000;stroke-linecap:square;stroke-linejoin:miter;stroke-width:0.8;"/>
   </g>
   <g id="patch_4">
    <path d="M 565.2 335 
L 565.2 25.44 
" style="fill:none;stroke:#000000;stroke-linecap:square;stroke-linejoin:miter;stroke-width:0.8;"/>
   </g>
   <g id="patch_5">
    <path d="M 44.71 335 
L 565.2 335 
" style="fill:none;stroke:#000000;stroke-linecap:square;stroke-linejoin:miter;stroke-width:0.8;"/>
   </g>
   <g id="patch_6">
    <path d="M 44.71 25.44 
L 565.2 25.44 
" style="fill:none;stroke:#000000;stroke-linecap:square;stroke-linejoin:miter;stroke-width:0.8;"/>
   </g>
   <g id="text_17">
    <!-- Crossed wire paths -->
    <defs>
     <path d="M 64.40625 67.28125 
L 64.40625 56.890625 
Q 59.421875 61.53125 53.78125 63.8125 
Q 48.140625 66.109375 41.796875 66.109375 
Q 29.296875 66.109375 22.65625 58.46875 
Q 16.015625 50.828125 16.015625 36.375 
Q 16.015625 21.96875 22.65625 14.328125 
Q 29.296875 6.6875 41.796875 6.6875 
Q 48.140625 6.6875 53.78125 8.984375 
Q 59.421875 11.28125 64.40625 15.921875 
L 64.40625 5.609375 
Q 59.234375 2.09375 53.4375 0.328125 
Q 47.65625 -1.421875 41.21875 -1.421875 
Q 24.65625 -1.421875 15.125 8.703125 
Q 5.609375 18.84375 5.609375 36.375 
Q 5.609375 53.953125 15.125 64.078125 
Q 24.65625 74.21875 41.21875 74.21875 
Q 47.75 74.21875 53.53125 72.484375 
Q 59.328125 70.75 64.40625 67.28125 
z
" id="DejaVuSans-67"/>
     <path d="M 41.109375 46.296875 
Q 39.59375 47.171875 37.8125 47.578125 
Q 36.03125 48 33.890625 48 
Q 26.265625 48 22.1875 43.046875 
Q 18.109375 38.09375 18.109375 28.8125 
L 18.109375 0 
L 9.078125 0 
L 9.078125 54.6875 
L 18.109375 54.6875 
L 18.109375 46.1875 
Q 20.953125 51.171875 25.484375 53.578125 
Q 30.03125 56 36.53125 56 
Q 37.453125 56 38.578125 55.875 
Q 39.703125 55.765625 41.0625 55.515625 
z
" id="DejaVuSans-114"/>
     <path d="M 30.609375 48.390625 
Q 23.390625 48.390625 19.1875 42.75 
Q 14.984375 37.109375 14.984375 27.296875 
Q 14.984375 17.484375 19.15625 11.84375 
Q 23.34375 6.203125 30.609375 6.203125 
Q 37.796875 6.203125 41.984375 11.859375 
Q 46.1875 17.53125 46.1875 27.296875 
Q 46.1875 37.015625 41.984375 42.703125 
Q 37.796875 48.390625 30.609375 48.390625 
z
M 30.609375 56 
Q 42.328125 56 49.015625 48.375 
Q 55.71875 40.765625 55.71875 27.296875 
Q 55.71875 13.875 49.015625 6.21875 
Q 42.328125 -1.421875 30.609375 -1.421875 
Q 18.84375 -1.421875 12.171875 6.21875 
Q 5.515625 13.875 5.515625 27.296875 
Q 5.515625 40.765625 12.171875 48.375 
Q 18.84375 56 30.609375 56 
z
" id="DejaVuSans-111"/>
     <path d="M 44.28125 53.078125 
L 44.28125 44.578125 
Q 40.484375 46.53125 36.375 47.5 
Q 32.28125 48.484375 27.875 48.484375 
Q 21.1875 48.484375 17.84375 46.4375 
Q 14.5 44.390625 14.5 40.28125 
Q 14.5 37.15625 16.890625 35.375 
Q 19.28125 33.59375 26.515625 31.984375 
L 29.59375 31.296875 
Q 39.15625 29.25 43.1875 25.515625 
Q 47.21875 21.78125 47.21875 15.09375 
Q 47.21875 7.46875 41.1875 3.015625 
Q 35.15625 -1.421875 24.609375 -1.421875 
Q 20.21875 -1.421875 15.453125 -0.5625 
Q 10.6875 0.296875 5.421875 2 
L 5.421875 11.28125 
Q 10.40625 8.6875 15.234375 7.390625 
Q 20.0625 6.109375 24.8125 6.109375 
Q 31.15625 6.109375 34.5625 8.28125 
Q 37.984375 10.453125 37.984375 14.40625 
Q 37.984375 18.0625 35.515625 20.015625 
Q 33.0625 21.96875 24.703125 23.78125 
L 21.578125 24.515625 
Q 13.234375 26.265625 9.515625 29.90625 
Q 5.8125 33.546875 5.8125 39.890625 
Q 5.8125 47.609375 11.28125 51.796875 
Q 16.75 56 26.8125 56 
Q 31.78125 56 36.171875 55.265625 
Q 40.578125 54.546875 44.28125 53.078125 
z
" id="DejaVuSans-115"/>
     <path d="M 56.203125 29.59375 
L 56.203125 25.203125 
L 14.890625 25.203125 
Q 15.484375 15.921875 20.484375 11.0625 
Q 25.484375 6.203125 34.421875 6.203125 
Q 39.59375 6.203125 44.453125 7.46875 
Q 49.3125 8.734375 54.109375 11.28125 
L 54.109375 2.78125 
Q 49.265625 0.734375 44.1875 -0.34375 
Q 39.109375 -1.421875 33.890625 -1.421875 
Q 20.796875 -1.421875 13.15625 6.1875 
Q 5.515625 13.8125 5.515625 26.8125 
Q 5.515625 40.234375 12.765625 48.109375 
Q 20.015625 56 32.328125 56 
Q 43.359375 56 49.78125 48.890625 
Q 56.203125 41.796875 56.203125 29.59375 
z
M 47.21875 32.234375 
Q 47.125 39.59375 43.09375 43.984375 
Q 39.0625 48.390625 32.421875 48.390625 
Q 24.90625 48.390625 20.390625 44.140625 
Q 15.875 39.890625 15.1875 32.171875 
z
" id="DejaVuSans-101"/>
     <path d="M 45.40625 46.390625 
L 45.40625 75.984375 
L 54.390625 75.984375 
L 54.390625 0 
L 45.40625 0 
L 45.40625 8.203125 
Q 42.578125 3.328125 38.25 0.953125 
Q 33.9375 -1.421875 27.875 -1.421875 
Q 17.96875 -1.421875 11.734375 6.484375 
Q 5.515625 14.40625 5.515625 27.296875 
Q 5.515625 40.1875 11.734375 48.09375 
Q 17.96875 56 27.875 56 
Q 33.9375 56 38.25 53.625 
Q 42.578125 51.265625 45.40625 46.390625 
z
M 14.796875 27.296875 
Q 14.796875 17.390625 18.875 11.75 
Q 22.953125 6.109375 30.078125 6.109375 
Q 37.203125 6.109375 41.296875 11.75 
Q 45.40625 17.390625 45.40625 27.296875 
Q 45.40625 37.203125 41.296875 42.84375 
Q 37.203125 48.484375 30.078125 48.484375 
Q 22.953125 48.484375 18.875 42.84375 
Q 14.796875 37.203125 14.796875 27.296875 
z
" id="DejaVuSans-100"/>
     <path id="DejaVuSans-32"/>
     <path d="M 4.203125 54.6875 
L 13.1875 54.6875 
L 24.421875 12.015625 
L 35.59375 54.6875 
L 46.1875 54.6875 
L 57.421875 12.015625 
L 68.609375 54.6875 
L 77.59375 54.6875 
L 63.28125 0 
L 52.6875 0 
L 40.921875 44.828125 
L 29.109375 0 
L 18.5 0 
z
" id="DejaVuSans-119"/>
     <path d="M 9.421875 54.6875 
L 18.40625 54.6875 
L 18.40625 0 
L 9.421875 0 
z
M 9.421875 75.984375 
L 18.40625 75.984375 
L 18.40625 64.59375 
L 9.421875 64.59375 
z
" id="DejaVuSans-105"/>
     <path d="M 18.109375 8.203125 
L 18.109375 -20.796875 
L 9.078125 -20.796875 
L 9.078125 54.6875 
L 18.109375 54.6875 
L 18.109375 46.390625 
Q 20.953125 51.265625 25.265625 53.625 
Q 29.59375 56 35.59375 56 
Q 45.5625 56 51.78125 48.09375 
Q 58.015625 40.1875 58.015625 27.296875 
Q 58.015625 14.40625 51.78125 6.484375 
Q 45.5625 -1.421875 35.59375 -1.421875 
Q 29.59375 -1.421875 25.265625 0.953125 
Q 20.953125 3.328125 18.109375 8.203125 
z
M 48.6875 27.296875 
Q 48.6875 37.203125 44.609375 42.84375 
Q 40.53125 48.484375 33.40625 48.484375 
Q 26.265625 48.484375 22.1875 42.84375 
Q 18.109375 37.203125 18.109375 27.296875 
Q 18.109375 17.390625 22.1875 11.75 
Q 26.265625 6.109375 33.40625 6.109375 
Q 40.53125 6.109375 44.609375 11.75 
Q 48.6875 17.390625 48.6875 27.296875 
z
" id="DejaVuSans-112"/>
     <path d="M 34.28125 27.484375 
Q 23.390625 27.484375 19.1875 25 
Q 14.984375 22.515625 14.984375 16.5 
Q 14.984375 11.71875 18.140625 8.90625 
Q 21.296875 6.109375 26.703125 6.109375 
Q 34.1875 6.109375 38.703125 11.40625 
Q 43.21875 16.703125 43.21875 25.484375 
L 43.21875 27.484375 
z
M 52.203125 31.203125 
L 52.203125 0 
L 43.21875 0 
L 43.21875 8.296875 
Q 40.140625 3.328125 35.546875 0.953125 
Q 30.953125 -1.421875 24.3125 -1.421875 
Q 15.921875 -1.421875 10.953125 3.296875 
Q 6 8.015625 6 15.921875 
Q 6 25.140625 12.171875 29.828125 
Q 18.359375 34.515625 30.609375 34.515625 
L 43.21875 34.515625 
L 43.21875 35.40625 
Q 43.21875 41.609375 39.140625 45 
Q 35.0625 48.390625 27.6875 48.390625 
Q 23 48.390625 18.546875 47.265625 
Q 14.109375 46.140625 10.015625 43.890625 
L 10.015625 52.203125 
Q 14.9375 54.109375 19.578125 55.046875 
Q 24.21875 56 28.609375 56 
Q 40.484375 56 46.34375 49.84375 
Q 52.203125 43.703125 52.203125 31.203125 
z
" id="DejaVuSans-97"/>
     <path d="M 18.3125 70.21875 
L 18.3125 54.6875 
L 36.8125 54.6875 
L 36.8125 47.703125 
L 18.3125 47.703125 
L 18.3125 18.015625 
Q 18.3125 11.328125 20.140625 9.421875 
Q 21.96875 7.515625 27.59375 7.515625 
L 36.8125 7.515625 
L 36.8125 0 
L 27.59375 0 
Q 17.1875 0 13.234375 3.875 
Q 9.28125 7.765625 9.28125 18.015625 
L 9.28125 47.703125 
L 2.6875 47.703125 
L 2.6875 54.6875 
L 9.28125 54.6875 
L 9.28125 70.21875 
z
" id="DejaVuSans-116"/>
     <path d="M 54.890625 33.015625 
L 54.890625 0 
L 45.90625 0 
L 45.90625 32.71875 
Q 45.90625 40.484375 42.875 44.328125 
Q 39.84375 48.1875 33.796875 48.1875 
Q 26.515625 48.1875 22.3125 43.546875 
Q 18.109375 38.921875 18.109375 30.90625 
L 18.109375 0 
L 9.078125 0 
L 9.078125 75.984375 
L 18.109375 75.984375 
L 18.109375 46.1875 
Q 21.34375 51.125 25.703125 53.5625 
Q 30.078125 56 35.796875 56 
Q 45.21875 56 50.046875 50.171875 
Q 54.890625 44.34375 54.890625 33.015625 
z
" id="DejaVuSans-104"/>
    </defs>
    <g transform="translate(247.566875 19.44)scale(0.12 -0.12)">
     <use xlink:href="#DejaVuSans-67"/>
     <use x="69.824219" xlink:href="#DejaVuSans-114"/>
     <use x="110.90625" xlink:href="#DejaVuSans-111"/>
     <use x="172.087891" xlink:href="#DejaVuSans-115"/>
     <use x="224.1875" xlink:href="#DejaVuSans-115"/>
     <use x="276.287109" xlink:href="#DejaVuSans-101"/>
     <use x="337.810547" xlink:href="#DejaVuSans-100"/>
     <use x="401.287109" xlink:href="#DejaVuSans-32"/>
     <use x="433.074219" xlink:href="#DejaVuSans-119"/>
     <use x="514.861328" xlink:href="#DejaVuSans-105"/>
     <use x="542.644531" xlink:href="#DejaVuSans-114"/>
     <use x="583.726562" xlink:href="#DejaVuSans-101"/>
     <use x="645.25" xlink:href="#DejaVuSans-32"/>
     <use x="677.037109" xlink:href="#DejaVuSans-112"/>
     <use x="740.513672" xlink:href="#DejaVuSans-97"/>
     <use x="801.792969" xlink:href="#DejaVuSans-116"/>
     <use x="841.001953" xlink:href="#DejaVuSans-104"/>
     <use x="904.380859" xlink:href="#DejaVuSans-115"/>
    </g>
   </g>
  </g>
 </g>
 <defs>
  <clipPath id="pa96a45fd31">
   <rect height="309.56" width="520.49" x="44.71" y="25.44"/>
  </clipPath>
 </defs>
</svg>
